<svg id="Layer_1" height="512" viewBox="0 0 512 512" width="512" xmlns="http://www.w3.org/2000/svg" xmlns:xlink="http://www.w3.org/1999/xlink" data-name="Layer 1"><linearGradient id="linear-gradient" gradientUnits="userSpaceOnUse" x1="256" x2="256" y1="421.403" y2="265.242"><stop offset=".322" stop-color="#a163f5"/><stop offset=".466" stop-color="#b074ee"/><stop offset=".752" stop-color="#d8a1dd"/><stop offset=".898" stop-color="#efbad3"/></linearGradient><linearGradient id="linear-gradient-2" x1="256" x2="256" xlink:href="#linear-gradient" y1="421.403" y2="265.242"/><linearGradient id="linear-gradient-4" x1="134.457" x2="134.457" xlink:href="#linear-gradient" y1="421.403" y2="265.242"/><path d="m185.148 134.8-48.719-5.236a6 6 0 0 0 -6.6 6.679l5.689 47.579a5.993 5.993 0 0 0 1.99 3.788l80.285 70.79-12.481 14.156a14.727 14.727 0 0 0 -19.9.56l-.421.408a14.757 14.757 0 0 0 -.318 20.843l1.09 1.124-29.763 28.483-1.148-1.184a14.648 14.648 0 0 0 -10.355-4.476h-.23a14.739 14.739 0 0 0 -10.575 25l33.39 34.422a14.739 14.739 0 1 0 21.159-20.525l-1.09-1.124 29.759-28.48 1.149 1.184a14.643 14.643 0 0 0 10.355 4.475h.231a14.636 14.636 0 0 0 10.254-4.16l.421-.408a14.748 14.748 0 0 0 1.021-20.041l17.172-15.235 15.045 13.264a14.726 14.726 0 0 0 .557 19.9l.41.424a14.759 14.759 0 0 0 20.842.318l1.124-1.09 28.483 29.762-1.185 1.149a14.74 14.74 0 0 0 10.039 25.317h.231a14.632 14.632 0 0 0 10.255-4.16l34.422-33.389a14.739 14.739 0 1 0 -20.524-21.159l-1.125 1.091-28.48-29.76 1.184-1.149a14.755 14.755 0 0 0 .317-20.841l-.408-.422a14.75 14.75 0 0 0 -20.041-1.019l-11.722-13.212 78.276-69.446a6.007 6.007 0 0 0 1.983-3.847l5.236-48.721a6 6 0 0 0 -6.678-6.6l-47.58 5.689a6 6 0 0 0 -3.789 1.989l-67.164 76.176-68.221-76.898a6 6 0 0 0 -3.852-1.988zm41.646 131.534 5.652 4.983-14.338 14.343-4.374-4.509zm-47.225 103.1a2.654 2.654 0 0 1 -1.948.773 2.726 2.726 0 0 1 -1.925-.832l-33.389-34.422a2.738 2.738 0 0 1 .059-3.873 2.776 2.776 0 0 1 1.949-.773 2.728 2.728 0 0 1 1.924.832l33.39 34.422a2.741 2.741 0 0 1 -.06 3.879zm-.773-21.967-14.44-14.886 29.76-28.48 14.439 14.886zm52.172-27.387-.422.409a2.63 2.63 0 0 1 -1.948.772 2.727 2.727 0 0 1 -1.925-.831l-33.39-34.422a2.742 2.742 0 0 1 .059-3.873l.422-.409a2.7 2.7 0 0 1 1.948-.773 2.735 2.735 0 0 1 1.925.832l33.389 34.421a2.74 2.74 0 0 1 -.058 3.874zm1.051-20.08-5.556-5.727 15-15 6.98 6.154zm133.548 32.37a2.728 2.728 0 0 1 1.909-.773h.04a2.74 2.74 0 0 1 1.865 4.706l-34.422 33.389a2.779 2.779 0 0 1 -1.948.773 2.74 2.74 0 0 1 -1.866-4.706zm-18.093.833-14.886 14.439-28.481-29.759 14.886-14.439zm-31.262-52.23a2.744 2.744 0 0 1 3.875.059l.408.421a2.742 2.742 0 0 1 -.059 3.873l-34.422 33.39a2.742 2.742 0 0 1 -3.871-.056l-.411-.424a2.739 2.739 0 0 1 .059-3.874zm15.66-133.813 37.823-4.522-4.182 38.921-76.541 67.909-8.323-9.38 58.951-58.948a6 6 0 1 0 -8.485-8.485l-58.444 58.445-7.425-8.369zm-31.872 132.821-5.727 5.556-113.133-113.137a6 6 0 1 0 -8.485 8.485l113.005 113.007-4.51 4.374-133.989-118.138-4.521-37.823 38.92 4.183z" fill="url(#linear-gradient)"/><path d="m438.57 100.078-179.915-88.368a6.005 6.005 0 0 0 -5.284 0l-179.934 88.123a6 6 0 0 0 -3.362 5.389v192.528c0 43.531 28.191 96.849 64.177 121.383l118.367 80.728a6 6 0 0 0 6.762 0l118.364-80.726c35.988-24.536 64.18-77.855 64.18-121.385v-192.287a6 6 0 0 0 -3.355-5.385zm-8.645 197.672c0 39.974-25.89 88.938-58.941 111.47l-114.984 78.422-114.987-78.424c-33.049-22.531-58.938-71.494-58.938-111.468v-188.786l173.931-85.186 173.919 85.422z" fill="url(#linear-gradient-2)"/><path d="m253.352 45.849-149.262 73.1a6 6 0 0 0 -3.361 5.388v173.413c0 33.3 23.26 77.287 50.792 96.057l101.1 68.951a6 6 0 0 0 6.762 0l101.1-68.949c27.534-18.771 50.8-62.761 50.8-96.059v-173.191a6 6 0 0 0 -3.354-5.386l-149.293-73.32a6 6 0 0 0 -5.284-.004zm145.919 82.451v169.45c0 29.345-21.288 69.6-45.556 86.145l-97.715 66.643-97.719-66.645c-24.266-16.544-45.552-56.8-45.552-86.143v-169.667l143.257-70.163z" fill="url(#linear-gradient-2)"/><g fill="url(#linear-gradient-4)"><path d="m134.457 224.705a6 6 0 0 0 6-6v-7.151a6 6 0 1 0 -12 0v7.151a6 6 0 0 0 6 6z"/><path d="m134.457 302.551a6 6 0 0 0 6-6v-57.885a6 6 0 0 0 -12 0v57.885a6 6 0 0 0 6 6z"/></g></svg>